<svg width="138" height="31" viewBox="0 0 138 31" fill="none" xmlns="http://www.w3.org/2000/svg">
<path d="M18.9221 9.07793V6.29871C18.9221 5.19414 18.0266 4.29871 16.9221 4.29871H3C1.89543 4.29871 1 5.19414 1 6.29871V20.2208C1 21.3254 1.89543 22.2208 3 22.2208H6.22727" stroke="white" stroke-width="2"/>
<rect x="7.07812" y="9.77922" width="15.9221" height="15.9221" rx="1" stroke="white" stroke-width="2"/>
<path d="M49.408 24.288C47.712 24.288 46.256 23.928 45.04 23.208C43.824 22.472 42.888 21.456 42.232 20.16C41.576 18.848 41.248 17.336 41.248 15.624C41.248 13.912 41.576 12.4 42.232 11.088C42.888 9.776 43.824 8.752 45.04 8.016C46.256 7.28 47.712 6.912 49.408 6.912C51.424 6.912 53.072 7.416 54.352 8.424C55.648 9.416 56.456 10.816 56.776 12.624H53.392C53.184 11.712 52.736 11 52.048 10.488C51.376 9.96 50.48 9.696 49.36 9.696C47.808 9.696 46.592 10.224 45.712 11.28C44.832 12.336 44.392 13.784 44.392 15.624C44.392 17.464 44.832 18.912 45.712 19.968C46.592 21.008 47.808 21.528 49.36 21.528C50.48 21.528 51.376 21.288 52.048 20.808C52.736 20.312 53.184 19.632 53.392 18.768H56.776C56.456 20.496 55.648 21.848 54.352 22.824C53.072 23.8 51.424 24.288 49.408 24.288ZM65.1353 24.288C63.9833 24.288 62.9433 24.024 62.0153 23.496C61.1033 22.968 60.3753 22.24 59.8313 21.312C59.3033 20.368 59.0393 19.28 59.0393 18.048C59.0393 16.816 59.3113 15.736 59.8553 14.808C60.3993 13.864 61.1273 13.128 62.0393 12.6C62.9673 12.072 64.0073 11.808 65.1593 11.808C66.2953 11.808 67.3193 12.072 68.2313 12.6C69.1593 13.128 69.8873 13.864 70.4153 14.808C70.9593 15.736 71.2313 16.816 71.2313 18.048C71.2313 19.28 70.9593 20.368 70.4153 21.312C69.8873 22.24 69.1593 22.968 68.2313 23.496C67.3033 24.024 66.2713 24.288 65.1353 24.288ZM65.1353 21.624C65.9353 21.624 66.6313 21.328 67.2233 20.736C67.8153 20.128 68.1113 19.232 68.1113 18.048C68.1113 16.864 67.8153 15.976 67.2233 15.384C66.6313 14.776 65.9433 14.472 65.1593 14.472C64.3433 14.472 63.6393 14.776 63.0473 15.384C62.4713 15.976 62.1833 16.864 62.1833 18.048C62.1833 19.232 62.4713 20.128 63.0473 20.736C63.6393 21.328 64.3353 21.624 65.1353 21.624ZM73.978 24V6.72H77.05V24H73.978ZM80.1889 24V6.72H83.2609V24H80.1889ZM92.1118 24.288C90.9598 24.288 89.9198 24.024 88.9918 23.496C88.0798 22.968 87.3518 22.24 86.8078 21.312C86.2798 20.368 86.0158 19.28 86.0158 18.048C86.0158 16.816 86.2878 15.736 86.8318 14.808C87.3758 13.864 88.1038 13.128 89.0158 12.6C89.9438 12.072 90.9838 11.808 92.1358 11.808C93.2718 11.808 94.2958 12.072 95.2078 12.6C96.1358 13.128 96.8638 13.864 97.3918 14.808C97.9358 15.736 98.2078 16.816 98.2078 18.048C98.2078 19.28 97.9358 20.368 97.3918 21.312C96.8638 22.24 96.1358 22.968 95.2078 23.496C94.2798 24.024 93.2478 24.288 92.1118 24.288ZM92.1118 21.624C92.9118 21.624 93.6078 21.328 94.1998 20.736C94.7918 20.128 95.0878 19.232 95.0878 18.048C95.0878 16.864 94.7918 15.976 94.1998 15.384C93.6078 14.776 92.9198 14.472 92.1358 14.472C91.3198 14.472 90.6158 14.776 90.0238 15.384C89.4478 15.976 89.1598 16.864 89.1598 18.048C89.1598 19.232 89.4478 20.128 90.0238 20.736C90.6158 21.328 91.3118 21.624 92.1118 21.624ZM105.875 24.288C104.819 24.288 103.891 24.12 103.091 23.784C102.291 23.432 101.651 22.952 101.171 22.344C100.691 21.736 100.403 21.032 100.307 20.232H103.403C103.499 20.696 103.755 21.096 104.171 21.432C104.603 21.752 105.155 21.912 105.827 21.912C106.499 21.912 106.987 21.776 107.291 21.504C107.611 21.232 107.771 20.92 107.771 20.568C107.771 20.056 107.547 19.712 107.099 19.536C106.651 19.344 106.027 19.16 105.227 18.984C104.715 18.872 104.195 18.736 103.667 18.576C103.139 18.416 102.651 18.216 102.203 17.976C101.771 17.72 101.419 17.4 101.147 17.016C100.875 16.616 100.739 16.128 100.739 15.552C100.739 14.496 101.155 13.608 101.987 12.888C102.835 12.168 104.019 11.808 105.539 11.808C106.947 11.808 108.067 12.136 108.899 12.792C109.747 13.448 110.251 14.352 110.411 15.504H107.507C107.331 14.624 106.667 14.184 105.515 14.184C104.939 14.184 104.491 14.296 104.171 14.52C103.867 14.744 103.715 15.024 103.715 15.36C103.715 15.712 103.947 15.992 104.411 16.2C104.875 16.408 105.491 16.6 106.259 16.776C107.091 16.968 107.851 17.184 108.539 17.424C109.243 17.648 109.803 17.992 110.219 18.456C110.635 18.904 110.843 19.552 110.843 20.4C110.859 21.136 110.667 21.8 110.267 22.392C109.867 22.984 109.291 23.448 108.539 23.784C107.787 24.12 106.899 24.288 105.875 24.288ZM117.668 24.288C116.644 24.288 115.804 24.128 115.148 23.808C114.492 23.472 114.004 23.032 113.684 22.488C113.364 21.944 113.204 21.344 113.204 20.688C113.204 19.584 113.636 18.688 114.5 18C115.364 17.312 116.66 16.968 118.388 16.968H121.412V16.68C121.412 15.864 121.18 15.264 120.716 14.88C120.252 14.496 119.676 14.304 118.988 14.304C118.364 14.304 117.82 14.456 117.356 14.76C116.892 15.048 116.604 15.48 116.492 16.056H113.492C113.572 15.192 113.86 14.44 114.356 13.8C114.868 13.16 115.524 12.672 116.324 12.336C117.124 11.984 118.02 11.808 119.012 11.808C120.708 11.808 122.044 12.232 123.02 13.08C123.996 13.928 124.484 15.128 124.484 16.68V24H121.868L121.58 22.08C121.228 22.72 120.732 23.248 120.092 23.664C119.468 24.08 118.66 24.288 117.668 24.288ZM118.364 21.888C119.244 21.888 119.924 21.6 120.404 21.024C120.9 20.448 121.212 19.736 121.34 18.888H118.724C117.908 18.888 117.324 19.04 116.972 19.344C116.62 19.632 116.444 19.992 116.444 20.424C116.444 20.888 116.62 21.248 116.972 21.504C117.324 21.76 117.788 21.888 118.364 21.888ZM127.415 24V6.72H130.487V24H127.415ZM134.946 24.168C134.386 24.168 133.922 23.992 133.554 23.64C133.202 23.288 133.026 22.864 133.026 22.368C133.026 21.856 133.202 21.424 133.554 21.072C133.922 20.72 134.386 20.544 134.946 20.544C135.506 20.544 135.962 20.72 136.314 21.072C136.682 21.424 136.866 21.856 136.866 22.368C136.866 22.864 136.682 23.288 136.314 23.64C135.962 23.992 135.506 24.168 134.946 24.168Z" fill="white"/>
</svg>
