<svg width="119" height="23" viewBox="0 0 119 23" fill="none" xmlns="http://www.w3.org/2000/svg">
<path d="M7.59057 22.5882H3.11101V11.4829H0.0594482V7.86722H3.11089V5.29442C3.11089 2.24565 4.46055 0.059082 8.92798 0.059082C9.87285 0.059082 11.3562 0.248478 11.3562 0.248478V3.60582H9.79819C8.21065 3.60582 7.5908 4.08605 7.5908 5.41371V7.86722H11.2968L10.9668 11.4829H7.59069L7.59057 22.5882ZM17.869 7.57828C17.8038 7.57828 17.7366 7.58065 17.6701 7.5823C13.5164 7.5823 11.616 10.6895 11.616 15.1002C11.616 20.6565 14.0811 22.8803 17.7026 22.8803C19.7746 22.8803 21.1359 22.013 21.9633 20.3945V22.5897H26.224V7.86876H21.9633V10.1326C21.2877 8.67612 19.8883 7.59554 17.869 7.57828ZM18.9524 11.0568C20.697 11.0568 21.7441 12.267 21.7441 14.3254L21.7481 16.4277C21.7481 17.8151 20.8833 19.4382 18.9524 19.4382C15.9839 19.4382 16.0632 16.2506 16.0632 15.189C16.0632 11.6178 17.6448 11.0568 18.9524 11.0568ZM27.9447 15.23C27.9447 13.4412 27.8586 7.58786 35.5269 7.58786C38.6051 7.58786 39.8904 8.5612 39.8904 8.5612L38.8574 11.7477C38.8574 11.7477 37.5737 11.0447 35.901 11.0447C33.7587 11.0447 32.3917 12.2798 32.3917 14.4529L32.394 16.0111C32.394 18.0992 33.713 19.4931 35.9054 19.4931C37.4293 19.4931 38.8337 18.7835 38.8337 18.7835L39.8642 21.9034C39.8642 21.9034 38.6889 22.8829 35.5484 22.8829C28.247 22.8829 27.9448 17.6314 27.9448 15.23H27.9447ZM64.8725 7.5823C69.0263 7.5823 70.9567 10.6895 70.9567 15.1002C70.9567 20.6565 68.4915 22.8803 64.87 22.8803C62.798 22.8803 61.2663 22.0132 60.4389 20.3945V22.5897L56.2318 22.5881V0.50668L60.6987 0.119258V9.9332C61.3434 8.21622 63.4621 7.5823 64.8726 7.5823H64.8725ZM63.6202 11.0568C61.8756 11.0568 60.6987 12.267 60.6987 14.3254L60.6945 16.4277C60.6919 17.8151 61.5096 19.4382 63.6202 19.4382C66.5887 19.4382 66.5094 16.2506 66.5094 15.189C66.5094 11.6178 64.9279 11.0568 63.6202 11.0568ZM47.6408 7.59448C42.9295 7.59448 40.4423 10.149 40.4423 14.6885V15.532C40.4423 21.4239 43.9351 22.9409 48.0993 22.9409C52.1469 22.9409 53.9789 21.815 53.9789 21.815L53.1431 18.8168C53.1431 18.8168 50.988 19.7287 48.6349 19.7287C46.1954 19.7287 45.1463 19.1104 44.8774 16.779H54.336V14.3737C54.336 9.44942 51.5446 7.59436 47.6407 7.59436L47.6408 7.59448ZM47.7543 10.5967C49.3851 10.5967 50.4419 11.5912 50.3838 13.8976H44.8856C44.9809 11.4701 46.1205 10.5968 47.7543 10.5968V10.5967ZM79.8634 7.57426C75.0253 7.57426 72.4783 10.2856 72.4783 15.1445C72.4783 21.8112 76.8688 22.8843 79.8715 22.8843C84.2672 22.8843 87.1917 20.5309 87.1917 15.2051C87.1917 9.66187 83.9034 7.57426 79.8634 7.57426ZM79.8025 11.0689C81.9299 11.0689 82.7729 12.6522 82.7729 14.4546V16.0042C82.7729 18.1875 81.5933 19.4504 79.7944 19.4504C78.112 19.4504 76.9296 18.2691 76.9296 16.0042V14.4546C76.9296 12.039 78.3366 11.0689 79.8025 11.0689ZM96.0904 7.57426C91.2523 7.57426 88.7053 10.2856 88.7053 15.1445C88.7053 21.8112 93.0958 22.8843 96.0985 22.8843C100.494 22.8843 103.419 20.5309 103.419 15.2051C103.419 9.66187 100.13 7.57426 96.0904 7.57426ZM96.0296 11.0689C98.1569 11.0689 98.9998 12.6522 98.9998 14.4546V16.0042C98.9998 18.1875 97.8203 19.4504 96.0215 19.4504C94.3391 19.4504 93.1567 18.2691 93.1567 16.0042V14.4546C93.1567 12.039 94.5636 11.0689 96.0296 11.0689ZM105.107 22.5882V0.50668L109.587 0.119258V14.9197L114.031 7.86722H118.762L114.126 15.1715L118.941 22.5882H114.196L109.587 15.3867V22.5882H105.107Z" fill="white" fill-opacity="0.6"/>
</svg>
