<svg width="119" height="32" viewBox="0 0 119 32" fill="none" xmlns="http://www.w3.org/2000/svg">
<path d="M67.4135 10.7852C67.4135 7.34814 67.473 4.14814 67.6515 1.18518L58.548 2.9037V3.73333L59.4405 3.85185C60.095 3.91111 60.5115 4.14814 60.7495 4.5037C60.9875 4.91851 61.166 5.51111 61.285 6.4C61.404 8.11851 61.523 12.0296 61.4635 18.1926C61.4635 24.2963 61.404 28.1481 61.285 29.6296C64.5575 30.3407 67.116 30.637 69.02 30.637C72.59 30.637 75.3865 29.6296 77.4095 27.5556C79.4325 25.5407 80.5035 22.6963 80.5035 19.2C80.5035 16.4148 79.73 14.1037 78.183 12.2667C76.636 10.4296 74.6725 9.54074 72.352 9.54074C70.805 9.54074 69.1985 9.95555 67.4135 10.7852ZM67.592 29.037C67.473 27.1407 67.354 21.4518 67.354 12.1481C67.8895 11.9704 68.6035 11.8518 69.496 11.8518C70.924 11.8518 72.0545 12.563 72.8875 14.0444C73.7205 15.5259 74.137 17.3037 74.137 19.5556C74.137 22.3407 73.661 24.5926 72.709 26.4889C71.757 28.3259 70.567 29.2741 69.0795 29.2741C68.6035 29.1556 68.1275 29.0963 67.592 29.037ZM24.395 1.77777H0.595001V2.96296L1.8445 3.08148C2.7965 3.25925 3.451 3.61481 3.8675 4.14814C4.284 4.74074 4.522 5.68888 4.5815 6.99259C5.0575 13.3926 5.0575 19.3778 4.5815 24.8889C4.4625 26.1926 4.2245 27.1407 3.8675 27.7333C3.451 28.3259 2.7965 28.6815 1.8445 28.8L0.595001 28.9778V30.163H15.946V28.9778L14.3395 28.8593C13.3875 28.7407 12.733 28.3259 12.3165 27.7926C11.9 27.2 11.662 26.2518 11.6025 24.9481C11.424 22.5778 11.305 19.8518 11.305 16.8296L14.518 16.8889C16.2435 16.9481 17.4335 18.2518 18.0285 20.8593H19.2185V11.2H18.0285C17.4335 13.7481 16.303 15.0518 14.518 15.1111L11.305 15.1704C11.305 9.83703 11.424 6.04444 11.6025 3.73333H16.303C19.635 3.73333 21.896 5.86666 23.205 10.1333L24.633 9.71851L24.395 1.77777ZM21.5985 20.0296C21.5985 23.1111 22.491 25.6593 24.2165 27.6741C25.942 29.6889 28.5005 30.637 31.7135 30.637C34.9265 30.637 37.5445 29.6296 39.4485 27.5556C41.3525 25.5407 42.245 22.9926 42.245 19.9111C42.245 16.8296 41.3525 14.2815 39.627 12.2667C37.9015 10.2518 35.343 9.3037 32.13 9.3037C28.917 9.3037 26.299 10.3111 24.395 12.3852C22.491 14.4 21.5985 16.9481 21.5985 20.0296ZM34.867 13.2741C35.581 14.9926 35.8785 17.2444 35.8785 19.9704C35.8785 26.2518 34.5695 29.3333 32.011 29.3333C30.702 29.3333 29.6905 28.4444 28.9765 26.6667C28.2625 24.8889 27.965 22.637 27.965 19.9704C27.965 13.7481 29.274 10.6667 31.8325 10.6667C33.1415 10.6074 34.153 11.4963 34.867 13.2741ZM85.1445 27.6741C87.108 29.6296 89.607 30.637 92.582 30.637C94.4265 30.637 96.033 30.2815 97.461 29.5111C98.889 28.8 100.019 27.9111 100.793 26.8444L100.198 26.1333C98.889 27.1407 97.4015 27.6148 95.676 27.6148C93.296 27.6148 91.4515 26.8444 90.202 25.2444C88.893 23.6444 88.298 21.6296 88.417 19.0222H101.15C101.15 16.1778 100.436 13.8667 98.9485 12.0296C97.461 10.2518 95.3785 9.36296 92.701 9.36296C89.369 9.36296 86.8105 10.4296 84.966 12.5037C83.1215 14.5778 82.229 17.1259 82.229 20.1481C82.229 23.2296 83.181 25.7185 85.1445 27.6741ZM89.5475 12.8C90.202 11.3778 91.035 10.6667 92.1655 10.6667C93.9505 10.6667 94.843 12.9185 94.843 17.4815L88.536 17.6C88.5955 15.8222 88.893 14.2222 89.5475 12.8ZM117.155 10.4296C115.549 9.71851 113.526 9.3037 111.086 9.3037C108.587 9.3037 106.624 9.95555 105.136 11.2C103.649 12.4444 102.875 13.9852 102.875 15.8222C102.875 17.4222 103.351 18.6667 104.244 19.5556C105.136 20.4444 106.564 21.2148 108.409 21.8667C110.075 22.4593 111.265 23.0518 111.86 23.5852C112.455 24.1778 112.812 24.8296 112.812 25.7185C112.812 26.5481 112.514 27.3185 111.86 27.9111C111.265 28.563 110.432 28.8593 109.361 28.8593C106.743 28.8593 104.779 26.963 103.411 23.1704L102.399 23.4667L102.637 29.3926C104.779 30.2222 107.159 30.637 109.777 30.637C112.514 30.637 114.597 30.0444 116.144 28.8C117.691 27.6148 118.465 25.8963 118.465 23.763C118.465 22.3407 118.107 21.1556 117.334 20.2667C116.56 19.3778 115.311 18.6074 113.526 17.8963C111.562 17.1852 110.194 16.5333 109.48 15.9407C108.766 15.3481 108.409 14.637 108.409 13.7481C108.409 12.8593 108.647 12.1481 109.182 11.5556C109.718 10.963 110.372 10.7259 111.205 10.7259C113.585 10.7259 115.311 12.4444 116.382 15.8222L117.393 15.5259L117.155 10.4296ZM59.9165 9.89629C59.0835 9.48148 58.191 9.3037 57.1795 9.3037C56.168 9.3037 55.1565 9.71851 54.026 10.5481C52.8955 11.3778 52.0625 12.5037 51.408 14.0444L51.4675 9.3037L42.4235 11.0815V11.9111L43.316 11.9704C44.4465 12.0889 45.101 12.9778 45.22 14.5778C45.577 18.2518 45.577 22.163 45.22 26.3111C45.101 27.9111 44.4465 28.7407 43.316 28.9185L42.4235 29.037V30.163H55.0375V29.037L53.431 28.9185C52.3005 28.8 51.646 27.9111 51.527 26.3111C51.17 22.8741 51.1105 19.2 51.408 15.4074C51.765 14.8148 52.5385 14.4593 53.7285 14.3407C54.9185 14.2222 56.287 14.5778 57.715 15.4074L59.9165 9.89629Z" fill="white" fill-opacity="0.6"/>
</svg>
