<svg width="119" height="33" viewBox="0 0 119 33" fill="none" xmlns="http://www.w3.org/2000/svg">
<path d="M22.9391 14.0814H12.9309C12.6727 14.0814 12.4632 14.2957 12.4632 14.5594V19.5577C12.4632 19.8214 12.6727 20.0359 12.9309 20.0359H16.8352V26.2459C16.8352 26.2459 15.9585 26.5511 13.5348 26.5511C10.6754 26.5511 6.68084 25.4839 6.68084 16.5117C6.68084 7.53758 10.8403 6.35684 14.7453 6.35684C18.1255 6.35684 19.5817 6.96482 20.5083 7.25766C20.7994 7.34885 21.0687 7.05272 21.0687 6.78876L22.1852 1.95944C22.1852 1.83607 22.1443 1.68737 22.0064 1.5863C21.6302 1.3122 19.3345 0 13.5348 0C6.85345 0 0 2.90357 0 16.8616C0 30.8201 7.84668 32.9001 14.4588 32.9001C19.9336 32.9001 23.2548 30.5103 23.2548 30.5103C23.3917 30.433 23.4066 30.2377 23.4066 30.148V14.5594C23.4066 14.2957 23.1973 14.0814 22.9391 14.0814ZM74.4902 1.74716C74.4902 1.48117 74.2838 1.26661 74.0257 1.26661H68.3904C68.133 1.26661 67.9237 1.48117 67.9237 1.74716C67.9237 1.74842 67.9251 12.8713 67.9251 12.8713H59.1413V1.74716C59.1413 1.48117 58.9339 1.26661 58.6763 1.26661H53.0412C52.7848 1.26661 52.5757 1.48117 52.5757 1.74716V31.8678C52.5757 32.1336 52.7848 32.3499 53.0412 32.3499H58.6763C58.9339 32.3499 59.1413 32.1336 59.1413 31.8678V18.9842H67.9251C67.9251 18.9842 67.9098 31.8668 67.9098 31.8678C67.9098 32.1336 68.1188 32.3499 68.3765 32.3499H74.0252C74.2833 32.3499 74.4897 32.1336 74.4902 31.8678V1.74716ZM33.555 5.77421C33.555 3.70153 31.9281 2.02657 29.9211 2.02657C27.916 2.02657 26.2879 3.70153 26.2879 5.77421C26.2879 7.8446 27.916 9.52412 29.9211 9.52412C31.9281 9.52412 33.555 7.8446 33.555 5.77421ZM33.1078 25.5297V11.6259C33.1078 11.362 32.8993 11.1461 32.6416 11.1461H27.0242C26.7665 11.1461 26.5359 11.4177 26.5359 11.6817V31.6016C26.5359 32.187 26.893 32.361 27.3553 32.361H32.4164C32.9717 32.361 33.1078 32.0826 33.1078 31.5922V25.5297ZM96.0279 11.1461H90.4357C90.1793 11.1461 89.9705 11.362 89.9705 11.6277V26.3968C89.9705 26.3968 88.55 27.4585 86.5335 27.4585C84.5173 27.4585 83.9821 26.524 83.9821 24.5073V11.6277C83.9821 11.362 83.7738 11.1461 83.5171 11.1461H77.8416C77.5854 11.1461 77.3756 11.362 77.3756 11.6277V25.4826C77.3756 31.4726 80.644 32.9381 85.1402 32.9381C88.8287 32.9381 91.8027 30.8566 91.8027 30.8566C91.8027 30.8566 91.9443 31.9534 92.0083 32.0837C92.0725 32.2134 92.2394 32.3443 92.4197 32.3443L96.0303 32.3281C96.2865 32.3281 96.4963 32.1118 96.4963 31.8473L96.4946 11.6277C96.4946 11.362 96.2855 11.1461 96.0279 11.1461ZM108.912 27.4699C106.973 27.4096 105.657 26.5106 105.657 26.5106V16.972C105.657 16.972 106.955 16.1594 108.547 16.014C110.561 15.8298 112.501 16.4512 112.501 21.358C112.501 26.5324 111.626 27.5535 108.912 27.4699ZM111.118 10.4992C107.942 10.4992 105.781 11.9466 105.781 11.9466V1.74716C105.781 1.48117 105.573 1.26661 105.316 1.26661H99.6653C99.4083 1.26661 99.1995 1.48117 99.1995 1.74716V31.8678C99.1995 32.1336 99.4083 32.3499 99.666 32.3499H103.587C103.763 32.3499 103.897 32.2569 103.996 32.094C104.093 31.9322 104.234 30.7053 104.234 30.7053C104.234 30.7053 106.545 32.9422 110.919 32.9422C116.055 32.9422 119 30.2813 119 20.9968C119 11.7123 114.296 10.4992 111.118 10.4992ZM49.3267 11.0945H45.0996C45.0996 11.0945 45.0931 5.39144 45.0931 5.39017C45.0931 5.17434 44.9843 5.06643 44.74 5.06643H38.9795C38.7555 5.06643 38.6352 5.167 38.6352 5.38688V11.2817C38.6352 11.2817 35.7485 11.9935 35.5534 12.051C35.3589 12.1085 35.2158 12.2917 35.2158 12.51V16.2143C35.2158 16.4808 35.4242 16.6956 35.6818 16.6956H38.6352V25.607C38.6352 32.226 43.1806 32.8763 46.2478 32.8763C47.6493 32.8763 49.3257 32.4165 49.6025 32.3121C49.7699 32.2493 49.8671 32.0723 49.8671 31.8802L49.8718 27.8053C49.8718 27.5396 49.6521 27.3245 49.4046 27.3245C49.1583 27.3245 48.5282 27.4268 47.8794 27.4268C45.8032 27.4268 45.0996 26.4407 45.0996 25.1642C45.0996 23.8887 45.0993 16.6956 45.0993 16.6956H49.3267C49.5844 16.6956 49.793 16.4808 49.793 16.2143V11.5745C49.793 11.3088 49.5844 11.0945 49.3267 11.0945Z" fill="white" fill-opacity="0.6"/>
</svg>
