<svg width="119" height="39" viewBox="0 0 119 39" fill="none" xmlns="http://www.w3.org/2000/svg">
<path d="M115.293 23.8346L118.595 26.0327C117.523 27.609 114.96 30.3133 110.53 30.3133C105.028 30.3133 100.931 26.0617 100.931 20.6531C100.931 14.8975 105.071 10.9929 110.067 10.9929C115.091 10.9929 117.552 14.9843 118.348 17.139L118.783 18.2381L105.839 23.5888C106.823 25.5266 108.358 26.51 110.53 26.51C112.702 26.51 114.208 25.4398 115.293 23.8346ZM105.144 20.3494L113.788 16.763C113.31 15.5627 111.891 14.7095 110.197 14.7095C108.04 14.7095 105.042 16.6184 105.144 20.3494Z" fill="white" fill-opacity="0.6"/>
<path d="M94.6902 1.14471H98.8601V29.4311H94.6902V1.14471Z" fill="white" fill-opacity="0.6"/>
<path d="M88.1168 11.7449H92.1419V28.925C92.1419 36.0545 87.9286 38.9901 82.9479 38.9901C78.2568 38.9901 75.4335 35.8375 74.3765 33.2779L78.0686 31.745C78.7346 33.3213 80.3417 35.1868 82.9479 35.1868C86.1477 35.1868 88.1168 33.2056 88.1168 29.5035V28.1152H87.9721C87.0165 29.2721 85.1921 30.3133 82.8755 30.3133C78.0396 30.3133 73.6091 26.105 73.6091 20.682C73.6091 15.2301 78.0396 10.9785 82.8755 10.9785C85.1777 10.9785 87.0165 12.0052 87.9721 13.1332H88.1168V11.7449ZM88.4064 20.682C88.4064 17.2691 86.1332 14.7818 83.2375 14.7818C80.3128 14.7818 77.8514 17.2691 77.8514 20.682C77.8514 24.0515 80.3128 26.4955 83.2375 26.4955C86.1332 26.51 88.4064 24.0515 88.4064 20.682Z" fill="white" fill-opacity="0.6"/>
<path d="M50.7182 20.6097C50.7182 26.1773 46.3746 30.2699 41.0464 30.2699C35.7183 30.2699 31.3746 26.1629 31.3746 20.6097C31.3746 15.0132 35.7183 10.9351 41.0464 10.9351C46.3746 10.9351 50.7182 15.0132 50.7182 20.6097ZM46.4904 20.6097C46.4904 17.139 43.9711 14.7529 41.0464 14.7529C38.1217 14.7529 35.6024 17.139 35.6024 20.6097C35.6024 24.0515 38.1217 26.4666 41.0464 26.4666C43.9711 26.4666 46.4904 24.0515 46.4904 20.6097Z" fill="white" fill-opacity="0.6"/>
<path d="M71.8427 20.6531C71.8427 26.2207 67.4991 30.3133 62.1709 30.3133C56.8427 30.3133 52.4991 26.2207 52.4991 20.6531C52.4991 15.0566 56.8427 10.9929 62.1709 10.9929C67.4991 10.9929 71.8427 15.0421 71.8427 20.6531ZM67.6004 20.6531C67.6004 17.1824 65.0811 14.7963 62.1564 14.7963C59.2317 14.7963 56.7124 17.1824 56.7124 20.6531C56.7124 24.0949 59.2317 26.51 62.1564 26.51C65.0956 26.51 67.6004 24.0805 67.6004 20.6531Z" fill="white" fill-opacity="0.6"/>
<path d="M15.477 26.0761C9.41039 26.0761 4.66136 21.1882 4.66136 15.1289C4.66136 9.06955 9.41039 4.18161 15.477 4.18161C18.7492 4.18161 21.1382 5.46867 22.9046 7.11726L25.8148 4.21053C23.3534 1.85333 20.0667 0.0601196 15.477 0.0601196C7.16618 0.0601196 0.172951 6.82804 0.172951 15.1289C0.172951 23.4297 7.16618 30.1976 15.477 30.1976C19.9654 30.1976 23.3534 28.7225 26.003 25.9749C28.725 23.2561 29.5648 19.4383 29.5648 16.3436C29.5648 15.3747 29.449 14.3769 29.3187 13.6393H15.477V17.6596H25.337C25.0474 20.1759 24.2511 21.8968 23.0783 23.0681C21.6594 24.4998 19.4152 26.0761 15.477 26.0761Z" fill="white" fill-opacity="0.6"/>
</svg>
