<svg width="393" height="387" viewBox="0 0 393 387" fill="none" xmlns="http://www.w3.org/2000/svg">
<g filter="url(#filter0_b_31_232)">
<rect x="0.617401" width="172.117" height="179.002" rx="3" fill="white" fill-opacity="0.05"/>
</g>
<rect x="20.7753" y="21.7705" width="63.5749" height="12.0947" rx="3" fill="white" fill-opacity="0.05"/>
<rect x="20.7753" y="49.1852" width="20.7328" height="12.0947" rx="3" fill="white" fill-opacity="0.05"/>
<rect x="20.7753" y="73.3748" width="20.7328" height="12.0947" rx="3" fill="white" fill-opacity="0.05"/>
<rect x="20.7753" y="97.5642" width="20.7328" height="12.0947" rx="3" fill="white" fill-opacity="0.05"/>
<rect x="20.7753" y="121.754" width="20.7328" height="12.0947" rx="3" fill="white" fill-opacity="0.05"/>
<rect x="20.7753" y="145.943" width="20.7328" height="12.0947" rx="3" fill="white" fill-opacity="0.05"/>
<rect x="56.3173" y="49.1852" width="46.6489" height="12.0947" rx="3" fill="white" fill-opacity="0.05"/>
<rect x="56.4393" y="73.3748" width="52.7207" height="12.0947" rx="3" fill="white" fill-opacity="0.05"/>
<rect x="56.4393" y="97.5642" width="34.1134" height="12.0947" rx="3" fill="white" fill-opacity="0.05"/>
<rect x="56.4393" y="121.754" width="52.7207" height="12.0947" rx="3" fill="white" fill-opacity="0.05"/>
<rect x="56.3173" y="145.943" width="46.6489" height="12.0947" rx="3" fill="white" fill-opacity="0.05"/>
<rect x="117.775" y="49.1852" width="34.8016" height="12.0947" rx="3" fill="white" fill-opacity="0.05"/>
<rect x="123.891" y="73.3748" width="28.6862" height="12.0947" rx="3" fill="white" fill-opacity="0.05"/>
<rect x="105.283" y="97.5642" width="47.2935" height="12.0947" rx="3" fill="white" fill-opacity="0.05"/>
<rect x="123.891" y="121.754" width="28.6862" height="12.0947" rx="3" fill="white" fill-opacity="0.05"/>
<rect x="117.775" y="145.943" width="34.8016" height="12.0947" rx="3" fill="white" fill-opacity="0.05"/>
<g filter="url(#filter1_b_31_232)">
<rect x="16.8988" y="234.638" width="172.117" height="151.587" rx="3" fill="white" fill-opacity="0.05"/>
</g>
<rect x="37.0567" y="256.409" width="86.0587" height="12.0947" rx="3" fill="white" fill-opacity="0.05"/>
<rect x="37.0567" y="283.823" width="20.7328" height="12.0947" rx="3" fill="white" fill-opacity="0.05"/>
<rect x="37.0567" y="308.013" width="20.7328" height="12.0947" rx="3" fill="white" fill-opacity="0.05"/>
<rect x="37.0567" y="332.202" width="20.7328" height="12.0947" rx="3" fill="white" fill-opacity="0.05"/>
<rect x="37.0567" y="356.392" width="20.7328" height="12.0947" rx="3" fill="white" fill-opacity="0.05"/>
<rect x="72.5987" y="283.823" width="46.6489" height="12.0947" rx="3" fill="white" fill-opacity="0.05"/>
<rect x="72.7207" y="308.013" width="52.7207" height="12.0947" rx="3" fill="white" fill-opacity="0.05"/>
<rect x="72.7207" y="332.202" width="34.1134" height="12.0947" rx="3" fill="white" fill-opacity="0.05"/>
<rect x="72.7207" y="356.392" width="52.7207" height="12.0947" rx="3" fill="white" fill-opacity="0.05"/>
<rect x="134.057" y="283.823" width="34.8016" height="12.0947" rx="3" fill="white" fill-opacity="0.05"/>
<rect x="140.172" y="308.013" width="28.6862" height="12.0947" rx="3" fill="white" fill-opacity="0.05"/>
<rect x="121.565" y="332.202" width="47.2935" height="12.0947" rx="3" fill="white" fill-opacity="0.05"/>
<rect x="140.172" y="356.392" width="28.6862" height="12.0947" rx="3" fill="white" fill-opacity="0.05"/>
<g filter="url(#filter2_b_31_232)">
<rect x="220.804" y="111" width="172.117" height="226.575" rx="3" fill="white" fill-opacity="0.05"/>
</g>
<rect x="240.962" y="132.771" width="43.417" height="12.0947" rx="3" fill="white" fill-opacity="0.05"/>
<rect x="240.962" y="208.564" width="20.7328" height="12.0947" rx="3" fill="white" fill-opacity="0.05"/>
<rect x="276.504" y="208.564" width="46.6489" height="12.0947" rx="3" fill="white" fill-opacity="0.05"/>
<rect x="337.962" y="208.564" width="34.8016" height="12.0947" rx="3" fill="white" fill-opacity="0.05"/>
<rect x="240.962" y="232.754" width="20.7328" height="12.0947" rx="3" fill="white" fill-opacity="0.05"/>
<rect x="276.626" y="232.754" width="52.7207" height="12.0947" rx="3" fill="white" fill-opacity="0.05"/>
<rect x="344.077" y="232.754" width="28.6862" height="12.0947" rx="3" fill="white" fill-opacity="0.05"/>
<rect x="240.962" y="281.133" width="20.7328" height="12.0947" rx="3" fill="white" fill-opacity="0.05"/>
<rect x="276.626" y="281.133" width="52.7207" height="12.0947" rx="3" fill="white" fill-opacity="0.05"/>
<rect x="344.077" y="281.133" width="28.6862" height="12.0947" rx="3" fill="white" fill-opacity="0.05"/>
<rect x="240.962" y="256.943" width="20.7328" height="12.0947" rx="3" fill="white" fill-opacity="0.05"/>
<rect x="276.626" y="256.943" width="34.1134" height="12.0947" rx="3" fill="white" fill-opacity="0.05"/>
<rect x="325.47" y="256.943" width="47.2935" height="12.0947" rx="3" fill="white" fill-opacity="0.05"/>
<rect x="240.962" y="184.375" width="20.7328" height="12.0947" rx="3" fill="white" fill-opacity="0.05"/>
<rect x="276.626" y="184.375" width="52.7207" height="12.0947" rx="3" fill="white" fill-opacity="0.05"/>
<rect x="344.077" y="184.375" width="28.6862" height="12.0947" rx="3" fill="white" fill-opacity="0.05"/>
<rect x="240.962" y="160.185" width="20.7328" height="12.0947" rx="3" fill="white" fill-opacity="0.05"/>
<rect x="276.504" y="160.185" width="46.6489" height="12.0947" rx="3" fill="white" fill-opacity="0.05"/>
<rect x="337.962" y="160.185" width="34.8016" height="12.0947" rx="3" fill="white" fill-opacity="0.05"/>
<rect x="240.962" y="305.322" width="20.7328" height="12.0947" rx="3" fill="white" fill-opacity="0.05"/>
<rect x="276.504" y="305.322" width="46.6489" height="12.0947" rx="3" fill="white" fill-opacity="0.05"/>
<rect x="337.962" y="305.322" width="34.8016" height="12.0947" rx="3" fill="white" fill-opacity="0.05"/>
<path d="M172.735 85.0011C170.331 85.0011 168.408 87.0011 168.408 89.5011C168.408 92.0011 170.331 94.0011 172.735 94.0011C175.139 94.0011 177.062 92.0011 177.062 89.5011C177.062 87.0011 175.139 85.0011 172.735 85.0011Z" fill="#6016FC"/>
<path d="M169.908 89.5011C169.908 87.7735 171.214 86.5011 172.735 86.5011V83.5011C169.448 83.5011 166.908 86.2287 166.908 89.5011H169.908ZM172.735 86.5011C174.255 86.5011 175.562 87.7735 175.562 89.5011H178.562C178.562 86.2287 176.022 83.5011 172.735 83.5011V86.5011ZM175.562 89.5011C175.562 91.2287 174.255 92.5011 172.735 92.5011V95.5011C176.022 95.5011 178.562 92.7735 178.562 89.5011H175.562ZM172.735 92.5011C171.214 92.5011 169.908 91.2287 169.908 89.5011H166.908C166.908 92.7735 169.448 95.5011 172.735 95.5011V92.5011ZM177.062 91.0011H286.862V88.0011H177.062V91.0011ZM305.362 109.501V111H308.362V109.501H305.362ZM286.862 91.0011C297.08 91.0011 305.362 99.2838 305.362 109.501H308.362C308.362 97.627 298.737 88.0011 286.862 88.0011V91.0011Z" fill="#222234"/>
<path d="M189.016 305.932C186.612 305.932 184.689 307.932 184.689 310.432C184.689 312.932 186.612 314.932 189.016 314.932C191.42 314.932 193.343 312.932 193.343 310.432C193.343 307.932 191.42 305.932 189.016 305.932Z" fill="#6016FC"/>
<path d="M186.189 310.432C186.189 308.704 187.496 307.432 189.016 307.432V304.432C185.729 304.432 183.189 307.159 183.189 310.432H186.189ZM189.016 307.432C190.537 307.432 191.843 308.704 191.843 310.432H194.843C194.843 307.159 192.303 304.432 189.016 304.432V307.432ZM191.843 310.432C191.843 312.159 190.537 313.432 189.016 313.432V316.432C192.303 316.432 194.843 313.704 194.843 310.432H191.843ZM189.016 313.432C187.496 313.432 186.189 312.159 186.189 310.432H183.189C183.189 313.704 185.729 316.432 189.016 316.432V313.432ZM206.41 298.865V240.181H203.41V298.865H206.41ZM206.41 240.181C206.41 232.232 212.854 225.787 220.804 225.787V222.787C211.197 222.787 203.41 230.575 203.41 240.181H206.41ZM193.343 311.932C200.56 311.932 206.41 306.081 206.41 298.865H203.41C203.41 304.425 198.903 308.932 193.343 308.932V311.932Z" fill="#222234"/>
<defs>
<filter id="filter0_b_31_232" x="-73.3826" y="-74" width="320.117" height="327.002" filterUnits="userSpaceOnUse" color-interpolation-filters="sRGB">
<feFlood flood-opacity="0" result="BackgroundImageFix"/>
<feGaussianBlur in="BackgroundImage" stdDeviation="37"/>
<feComposite in2="SourceAlpha" operator="in" result="effect1_backgroundBlur_31_232"/>
<feBlend mode="normal" in="SourceGraphic" in2="effect1_backgroundBlur_31_232" result="shape"/>
</filter>
<filter id="filter1_b_31_232" x="-57.1012" y="160.638" width="320.117" height="299.587" filterUnits="userSpaceOnUse" color-interpolation-filters="sRGB">
<feFlood flood-opacity="0" result="BackgroundImageFix"/>
<feGaussianBlur in="BackgroundImage" stdDeviation="37"/>
<feComposite in2="SourceAlpha" operator="in" result="effect1_backgroundBlur_31_232"/>
<feBlend mode="normal" in="SourceGraphic" in2="effect1_backgroundBlur_31_232" result="shape"/>
</filter>
<filter id="filter2_b_31_232" x="146.804" y="37" width="320.117" height="374.575" filterUnits="userSpaceOnUse" color-interpolation-filters="sRGB">
<feFlood flood-opacity="0" result="BackgroundImageFix"/>
<feGaussianBlur in="BackgroundImage" stdDeviation="37"/>
<feComposite in2="SourceAlpha" operator="in" result="effect1_backgroundBlur_31_232"/>
<feBlend mode="normal" in="SourceGraphic" in2="effect1_backgroundBlur_31_232" result="shape"/>
</filter>
</defs>
</svg>
