<svg width="119" height="25" viewBox="0 0 119 25" fill="none" xmlns="http://www.w3.org/2000/svg">
<path d="M42.0046 14.3992L41.2954 16.3759H41.2363C41.1181 15.9302 40.9013 15.2519 40.5467 14.438L36.7442 5.03874H33.0205V20.0194H35.4833V10.7752C35.4833 10.1938 35.4833 9.53486 35.4636 8.72091C35.4439 8.31393 35.4045 8.00385 35.3848 7.77129H35.4439C35.5621 8.35269 35.7 8.77905 35.7985 9.05036L40.3694 19.9806H42.1032L46.6346 8.95346C46.7331 8.70153 46.8316 8.19765 46.9301 7.77129H46.9892C46.9301 8.87594 46.8907 9.86432 46.871 10.4651V19.9612H49.4914V4.99998H45.9056L42.0046 14.3992ZM51.9738 9.22478H54.5351V19.9612H51.9738V9.22478ZM53.2742 4.6899C52.8407 4.6899 52.4861 4.84494 52.1906 5.11625C51.895 5.38757 51.7374 5.73641 51.7374 6.16277C51.7374 6.56974 51.895 6.91858 52.1906 7.1899C52.4861 7.46122 52.8407 7.59688 53.2742 7.59688C53.7076 7.59688 54.082 7.44184 54.3578 7.1899C54.6533 6.91858 54.8109 6.56974 54.8109 6.16277C54.8109 5.75579 54.6533 5.40695 54.3578 5.11625C54.1017 4.84494 53.7273 4.6899 53.2742 4.6899ZM63.6177 9.12788C63.1449 9.03098 62.6523 8.97284 62.1795 8.97284C61.0171 8.97284 59.9531 9.22478 59.0666 9.72866C58.18 10.2325 57.4707 10.9302 57.0176 11.8023C56.5447 12.6938 56.3083 13.7209 56.3083 14.9031C56.3083 15.9302 56.5447 16.8411 56.9979 17.6744C57.451 18.4883 58.0815 19.1473 58.9286 19.593C59.7364 20.0387 60.6821 20.2713 61.746 20.2713C62.9676 20.2713 64.0118 20.0194 64.8392 19.5542L64.8589 19.5349V17.2093L64.7604 17.2868C64.3861 17.5581 63.9527 17.7907 63.5192 17.9263C63.0661 18.0814 62.6523 18.1589 62.2977 18.1589C61.2732 18.1589 60.4654 17.8682 59.894 17.2287C59.303 16.6085 59.0075 15.7558 59.0075 14.6899C59.0075 13.5852 59.303 12.7132 59.9137 12.0736C60.5245 11.4341 61.3323 11.1046 62.3174 11.1046C63.1449 11.1046 63.9921 11.3759 64.7604 11.9186L64.8589 11.9961V9.53486L64.8392 9.51548C64.5043 9.37982 64.13 9.22478 63.6177 9.12788ZM72.0699 9.05036C71.4394 9.05036 70.8484 9.24416 70.3361 9.65114C69.9027 9.99998 69.6071 10.5039 69.351 11.1046H69.3313V9.22478H66.77V19.9612H69.3313V14.4767C69.3313 13.5465 69.5283 12.7713 69.9618 12.2093C70.3952 11.6279 70.9469 11.3372 71.6167 11.3372C71.8532 11.3372 72.0896 11.3953 72.3851 11.4341C72.6609 11.5116 72.858 11.5891 72.9959 11.686L73.0944 11.7635V9.24416L73.0353 9.22478C72.858 9.1085 72.5033 9.05036 72.0699 9.05036ZM79.0444 8.99222C77.2515 8.99222 75.8133 9.51548 74.8085 10.5426C73.7839 11.5697 73.2914 12.9845 73.2914 14.7674C73.2914 16.4341 73.8036 17.7907 74.7887 18.779C75.7738 19.748 77.1136 20.2519 78.7882 20.2519C80.5417 20.2519 81.9406 19.7287 82.9454 18.6821C83.9699 17.6356 84.4624 16.2403 84.4624 14.5155C84.4624 12.8101 83.9896 11.4535 83.0242 10.4651C82.0982 9.47672 80.7388 8.99222 79.0444 8.99222ZM81.0934 17.248C80.6205 17.8488 79.8719 18.1395 78.9459 18.1395C78.0199 18.1395 77.2712 17.8488 76.7392 17.2093C76.2073 16.6085 75.9512 15.7364 75.9512 14.6318C75.9512 13.4883 76.227 12.6163 76.7392 11.9961C77.2712 11.3759 78.0002 11.0659 78.9262 11.0659C79.8325 11.0659 80.5417 11.3566 81.054 11.9573C81.5662 12.5581 81.8421 13.4302 81.8421 14.5736C81.8027 15.7364 81.5859 16.6473 81.0934 17.248ZM90.176 13.6821C89.3682 13.3527 88.856 13.1008 88.6195 12.8876C88.4225 12.6938 88.324 12.4225 88.324 12.0736C88.324 11.7829 88.4422 11.4922 88.7378 11.2984C89.0333 11.1046 89.3682 11.0077 89.8608 11.0077C90.2942 11.0077 90.7474 11.0852 91.1808 11.2015C91.6142 11.3178 92.0083 11.4922 92.3235 11.7248L92.422 11.8023V9.43796L92.3629 9.41858C92.0674 9.3023 91.6733 9.18602 91.2005 9.08912C90.7277 9.0116 90.2942 8.97284 89.9396 8.97284C88.7181 8.97284 87.7133 9.26354 86.9252 9.90308C86.1371 10.5039 85.7628 11.3178 85.7628 12.2674C85.7628 12.7713 85.8416 13.217 86.0189 13.5852C86.1962 13.9535 86.4523 14.3023 86.807 14.593C87.1616 14.8643 87.6738 15.1744 88.3831 15.4651C88.9742 15.717 89.4273 15.9108 89.7031 16.0659C89.979 16.2209 90.1563 16.3953 90.2942 16.531C90.3927 16.686 90.4518 16.8798 90.4518 17.1318C90.4518 17.8488 89.9002 18.1977 88.7772 18.1977C88.3437 18.1977 87.8906 18.1201 87.3586 17.9457C86.8267 17.7713 86.3341 17.5194 85.9204 17.2287L85.8219 17.1511V19.6124L85.881 19.6318C86.2553 19.8062 86.7084 19.9225 87.2601 20.0581C87.8118 20.155 88.3043 20.2325 88.7378 20.2325C90.0578 20.2325 91.1414 19.9418 91.9098 19.3023C92.6979 18.6821 93.1116 17.8876 93.1116 16.8604C93.1116 16.1434 92.9146 15.5039 92.4811 15.0194C91.9098 14.5542 91.2005 14.0697 90.176 13.6821ZM99.8694 8.99222C98.0765 8.99222 96.6382 9.51548 95.6334 10.5426C94.6286 11.5697 94.1164 12.9845 94.1164 14.7674C94.1164 16.4341 94.6286 17.7907 95.6137 18.779C96.5988 19.748 97.9386 20.2519 99.6133 20.2519C101.367 20.2519 102.766 19.7287 103.77 18.6821C104.795 17.6356 105.287 16.2403 105.287 14.5155C105.287 12.8101 104.815 11.4535 103.849 10.4651C102.923 9.47672 101.564 8.99222 99.8694 8.99222ZM101.899 17.248C101.426 17.8488 100.677 18.1395 99.7512 18.1395C98.8055 18.1395 98.0765 17.8488 97.5445 17.2093C97.0126 16.6085 96.7565 15.7364 96.7565 14.6318C96.7565 13.4883 97.0323 12.6163 97.5445 11.9961C98.0765 11.3759 98.8055 11.0659 99.7315 11.0659C100.618 11.0659 101.347 11.3566 101.859 11.9573C102.372 12.5581 102.647 13.4302 102.647 14.5736C102.647 15.7364 102.391 16.6473 101.899 17.248ZM118.98 11.2984V9.22478H116.399V6.04649L116.321 6.06587L113.877 6.78292L113.818 6.8023V9.22478H109.957V7.86819C109.957 7.24804 110.114 6.76354 110.39 6.45346C110.666 6.14339 111.08 5.98835 111.592 5.98835C111.947 5.98835 112.321 6.06587 112.735 6.24029L112.833 6.29843V4.1085L112.774 4.08912C112.42 3.97284 111.947 3.89532 111.336 3.89532C110.568 3.89532 109.898 4.06974 109.287 4.36044C108.676 4.6899 108.223 5.13563 107.888 5.73641C107.553 6.31781 107.376 6.97672 107.376 7.73253V9.22478H105.583V11.279H107.376V19.9612H109.957V11.2984H113.818V16.8217C113.818 19.0891 114.902 20.2325 117.069 20.2325C117.424 20.2325 117.798 20.1744 118.153 20.1163C118.527 20.0387 118.803 19.9418 118.961 19.8643L118.98 19.8449V17.7713L118.882 17.8488C118.724 17.9457 118.586 18.0232 118.35 18.0814C118.153 18.1395 117.975 18.1589 117.838 18.1589C117.325 18.1589 116.971 18.0426 116.715 17.7519C116.478 17.4806 116.36 17.0349 116.36 16.3759V11.2984H118.98Z" fill="white" fill-opacity="0.6"/>
<path d="M0 0H12.0773V11.8798H0V0Z" fill="white" fill-opacity="0.6"/>
<path d="M13.3383 0H25.4156V11.8798H13.3383V0Z" fill="white" fill-opacity="0.6"/>
<path d="M0 13.1202H12.0773V25H0V13.1202Z" fill="white" fill-opacity="0.6"/>
<path d="M13.3383 13.1202H25.4156V25H13.3383V13.1202Z" fill="white" fill-opacity="0.6"/>
</svg>
