<svg width="1440" height="5463" viewBox="0 0 1440 5463" fill="none" xmlns="http://www.w3.org/2000/svg">
<ellipse rx="392.146" ry="385.089" transform="matrix(0.969732 -0.244172 0.253855 0.967242 688.182 340.376)" fill="#16FCD2"/>
<ellipse rx="219.466" ry="215.517" transform="matrix(0.969732 -0.244172 0.253855 0.967242 355.533 1525.21)" fill="#FCA016"/>
<ellipse rx="178.305" ry="175.096" transform="matrix(0.969732 -0.244172 0.253855 0.967242 584.357 1318.36)" fill="#16FCD2"/>
<ellipse rx="219.466" ry="215.517" transform="matrix(0.969732 -0.244172 0.253855 0.967242 893.533 2162.85)" fill="#FC165B"/>
<ellipse rx="178.305" ry="175.096" transform="matrix(0.969732 -0.244172 0.253855 0.967242 1122.36 1956.01)" fill="#6016FC"/>
<ellipse rx="392.146" ry="385.089" transform="matrix(0.969732 -0.244172 0.253855 0.967242 151.033 475.626)" fill="#FCA016"/>
<ellipse rx="392.146" ry="385.089" transform="matrix(0.969732 -0.244172 0.253855 0.967242 1010.47 259.226)" fill="#FC165B"/>
<ellipse rx="219.466" ry="215.517" transform="matrix(0.969732 -0.244172 0.253855 0.967242 1058.25 5200.04)" fill="#16FCD2"/>
<ellipse rx="178.305" ry="175.096" transform="matrix(0.969732 -0.244172 0.253855 0.967242 341.357 5122.9)" fill="#6016FC"/>
</svg>
